<svg xmlns="http://www.w3.org/2000/svg" viewBox="0 0 688 560" fill="currentColor">
    <path d="M270.71 446.721c11.889-15.47 23.556-30.66 35.253-45.827 1.107-1.436 2.215-2.931 4.494-2.464a171.226 171.226 0 0 0 39.486 3.402c.698 2.702-1.059 3.869-2.092 5.216-30.818 40.193-61.325 80.633-92.694 120.393-15.316 19.414-36.39 28.994-61.24 29.956-18.46.714-36.911 1.99-55.376 2.213-19.468.234-38.937-.755-58.383-1.902-8.973-.529-17.965-.748-26.933-1.344-7.29-.485-14.645-.838-21.817-2.115-11.87-2.113-20.012-14.075-17.86-26.041 2.677-14.892 6.804-29.46 11.088-43.953 2.302-7.79 10.496-12.187 18.51-11.044 27.263 3.887 54.537 7.703 81.81 11.526 27.52 3.858 55.165 6.05 82.966 6.208 18.507.105 32.907-8.563 44.912-21.605 6.41-6.964 11.808-14.858 17.876-22.619zM367.608 430.343c-1.062-1.316-1.877-2.375-2.769-3.364-2.41-2.672-2.472-4.936.281-7.693 7.39-7.403 14.512-15.074 22.379-23.307 4.833 6.093 9.264 11.61 13.621 17.185 14.57 18.636 28.586 37.738 43.838 55.797 11.67 13.817 26.817 22.064 45.72 21.98 24.654-.111 49.131-2.346 73.611-5.013 30.862-3.362 61.418-8.8 92.148-13.043 6.305-.87 14.587 3.045 16.778 9.396 5.309 15.386 10.017 31.115 11.865 47.258 1.669 14.577-8.563 24.742-23.66 25.764-38.7 2.62-77.423 5.098-116.234 3.91-18.76-.575-37.671-.1-56.179-3.918-18.02-3.718-33.345-12.628-45.06-26.851-26.274-31.898-50.604-65.32-76.339-98.101zM391.373 222.39c16.244 3.855 31.37 9.31 44.41 19.36 9.466 7.295 16.206 16.163 15.625 29.042-.334 7.416-3.503 13.473-8.282 18.749-10.364 11.44-23.686 18.154-38.089 22.863-25.985 8.497-52.482 10.912-79.676 7.232-19.509-2.64-38.08-7.67-55.1-17.716-6.34-3.742-12.021-8.344-16.65-14.154-9.94-12.474-9.324-27.776 1.625-39.425 11.44-12.171 26.008-18.93 41.654-23.562 31.103-9.208 62.515-9.343 94.483-2.389z"/>
    <path d="M315.94 332.77c16.72 2.977 33.046 3.53 49.57 2.038 19.22-1.737 37.736-5.738 55.28-13.927 10.53-4.916 20.053-11.18 27.76-20 .741-.85 1.694-1.514 2.538-2.255 1.898 1.096 1.2 2.775 1.213 4.127.072 7.83-.53 15.707.139 23.478 1.463 17.003-6.847 28.602-19.83 37.76-14.708 10.374-31.465 15.743-48.932 19.035-30.98 5.838-61.538 4.009-91.516-5.856-11.789-3.88-22.803-9.31-32.125-17.738-8.813-7.967-14.176-17.34-13.481-29.766.483-8.635.063-17.32.124-25.981.01-1.585-.5-3.304.878-5.082 17.808 21.116 42.029 29.326 68.382 34.168zM558.265 127.225c-31.028 40.846-61.843 81.406-92.65 121.959-2.594-.568-2.72-2.979-3.777-4.492-5.39-7.718-11.702-14.552-19.214-20.192-3.006-2.256-2.985-3.976-.766-6.872 33.31-43.479 66.524-87.033 99.751-130.575 16.567-21.71 33.136-43.417 49.663-65.156 4.965-6.53 8.695-7.284 15.025-2.277 4.565 3.61 8.871 7.562 13.163 11.504 5.227 4.801 5.57 8.111 1.26 13.83-12.936 17.157-25.968 34.241-38.964 51.352-7.758 10.213-15.518 20.423-23.491 30.92zM199.956 144.088c19.82 25.907 39.433 51.523 59.52 77.757-10.355 7.931-19.224 16.609-25.405 27.348-2.274-.288-2.856-1.854-3.697-2.99-49.488-66.726-100.335-132.42-150.687-198.49-1.21-1.59-2.463-3.162-3.505-4.86-2.356-3.843-2.442-7.6 1.105-10.814 4.808-4.36 9.572-8.791 14.627-12.853 5.424-4.358 9.35-3.783 13.623 1.772 22.931 29.821 45.805 59.686 68.696 89.537 8.51 11.098 17.011 22.201 25.723 33.593z"/>
</svg>
